# xmcd
#
# Track frame offsets: 
#        150
#        17846
#        34956
#        48931
#        68549
#        114407
#        124880
#        148472
#        166511
#        183515
#        198861
#        207543
#        232001
#
# Disc length: 3325 seconds
#
# Revision: 0
# Processed by: cddbd v1.5.1PL0 Copyright (c) Steve Scherf et al.
# Submitted via: ExactAudioCopy v0.95a5
#
DISCID=ba0cfb0d
DTITLE=Jack Bowman and the VIPs - Edge of Mind
DYEAR=2004
DGENRE=Rock
TTITLE0=Edge of the Mind
TTITLE1=Supernatural Visitor
TTITLE2=Walk into the Fire
TTITLE3=Deep Within
TTITLE4=Cyanotic
TTITLE5=Dazed
TTITLE6=Valle Marinarus
TTITLE7=Pacific Railroad Blues
TTITLE8=Succubus
TTITLE9=Ice and Steel
TTITLE10=Madeline Bate
TTITLE11=The Ramey Memo
TTITLE12=Home That Never Exists
EXTD=
EXTT0=
EXTT1=
EXTT2=
EXTT3=
EXTT4=
EXTT5=
EXTT6=
EXTT7=
EXTT8=
EXTT9=
EXTT10=
EXTT11=
EXTT12=
PLAYORDER=
